#Comment line ignore any data following # character 
#Hierarchical Translation and Rotation (.htr) file 
[Header]	
#Header keywords are followed by a single value 
FileType HTR		#Single word string
DataType HTRS		#Translation followed by rotation and scale data
FileVersion 1		#integer
NumSegments 64		#integer
NumFrames 3		#integer
DataFrameRate 30		#integer, data frame rate in this file
EulerRotationOrder ZYX
CalibrationUnits mm
RotationUnits Degrees
GlobalAxisofGravity Y
BoneLengthAxis Y
ScaleFactor 1.00
[SegmentNames&Hierarchy]
#CHILD	PARENT
Pinger_Root GLOBAL
Pelvis Pinger_Root
L_Hip Pelvis
R_Hip Pelvis
Rear_Leg01 Pelvis
Spine1 Pelvis
L_Leg01 L_Hip
L_Leg02 L_Leg01
L_Leg03 L_Leg02
L_Foot L_Leg03
L_Toe1_01 L_Foot
L_Toe2_01 L_Foot
L_Toe3_01 L_Foot
planeAlignerLeft L_Foot
L_Toe1_02 L_Toe1_01
L_Toe1_03 L_Toe1_02
L_Toe2_02 L_Toe2_01
L_Toe2_03 L_Toe2_02
L_Toe3_02 L_Toe3_01
L_Toe3_03 L_Toe3_02
planeLockWeightLeft planeAlignerLeft
R_Leg01 R_Hip
R_Leg02 R_Leg01
R_Leg03 R_Leg02
R_Foot R_Leg03
planeAlignerRight R_Foot
R_Toe1_01 R_Foot
R_Toe2_01 R_Foot
R_Toe3_01 R_Foot
planeLockWeightRight planeAlignerRight
R_Toe1_02 R_Toe1_01
R_Toe1_03 R_Toe1_02
R_Toe2_02 R_Toe2_01
R_Toe2_03 R_Toe2_02
R_Toe3_02 R_Toe3_01
R_Toe3_03 R_Toe3_02
Rear_Leg02 Rear_Leg01
Rear_Leg03 Rear_Leg02
Rear_Leg04 Rear_Leg03
Rear_Foot Rear_Leg04
planeAlignerCenter Rear_Foot
Rear_Toe1_01 Rear_Foot
Rear_Toe2_01 Rear_Foot
Rear_Toe3_01 Rear_Foot
planeLockWeightCenter planeAlignerCenter
Rear_Toe1_02 Rear_Toe1_01
Rear_Toe1_03 Rear_Toe1_02
Rear_Toe2_02 Rear_Toe2_01
Rear_Toe2_03 Rear_Toe2_02
Rear_Toe3_02 Rear_Toe3_01
Rear_Toe3_03 Rear_Toe3_02
Back_Bone Spine1
Head Spine1
Motor_Bone Back_Bone
Ping_Mechanism Back_Bone
BN_LookIK Head
bottomMouth Head
L_Mouth01 Head
L_mouthFront Head
mouthGun Head
R_Mouth01 Head
R_mouthFront Head
TopMouth Head
weapon_bone Head
[BasePosition]
#SegmentName Tx, Ty, Tz, Rx, Ry, Rz, BoneLength
Pinger_Root 0.000000 0.000000 0.000000 -90.000000 0.000000 0.000000 10.000000 
Pelvis 0.000000 0.000000 0.000000 0.000000 0.000000 0.000000 10.000000 
L_Hip 0.000000 0.000000 0.000000 0.000000 0.000000 0.000000 10.000000 
R_Hip 0.000000 0.000000 0.000000 0.000000 0.000000 0.000000 10.000000 
Rear_Leg01 0.000000 0.000000 0.000000 0.000000 0.000000 0.000000 10.000000 
Spine1 0.000000 0.000000 0.000000 0.000000 0.000000 0.000000 10.000000 
L_Leg01 0.000000 0.000000 0.000000 0.000000 0.000000 0.000000 10.000000 
L_Leg02 0.000000 0.000000 0.000000 0.000000 0.000000 0.000000 10.000000 
L_Leg03 0.000000 0.000000 0.000000 0.000000 0.000000 0.000000 10.000000 
L_Foot 0.000000 0.000000 0.000000 0.000000 0.000000 0.000000 10.000000 
L_Toe1_01 0.000000 0.000000 0.000000 0.000000 0.000000 0.000000 10.000000 
L_Toe2_01 0.000000 0.000000 0.000000 0.000000 0.000000 0.000000 10.000000 
L_Toe3_01 0.000000 0.000000 0.000000 0.000000 0.000000 0.000000 10.000000 
planeAlignerLeft 0.000000 0.000000 0.000000 0.000000 0.000000 0.000000 10.000000 
L_Toe1_02 0.000000 0.000000 0.000000 0.000000 0.000000 0.000000 10.000000 
L_Toe1_03 0.000000 0.000000 0.000000 0.000000 0.000000 0.000000 10.000000 
L_Toe2_02 0.000000 0.000000 0.000000 0.000000 0.000000 0.000000 10.000000 
L_Toe2_03 0.000000 0.000000 0.000000 0.000000 0.000000 0.000000 10.000000 
L_Toe3_02 0.000000 0.000000 0.000000 0.000000 0.000000 0.000000 10.000000 
L_Toe3_03 0.000000 0.000000 0.000000 0.000000 0.000000 0.000000 10.000000 
planeLockWeightLeft 0.000000 0.000000 0.000000 0.000000 0.000000 0.000000 10.000000 
R_Leg01 0.000000 0.000000 0.000000 0.000000 0.000000 0.000000 10.000000 
R_Leg02 0.000000 0.000000 0.000000 0.000000 0.000000 0.000000 10.000000 
R_Leg03 0.000000 0.000000 0.000000 0.000000 0.000000 0.000000 10.000000 
R_Foot 0.000000 0.000000 0.000000 0.000000 0.000000 0.000000 10.000000 
planeAlignerRight 0.000000 0.000000 0.000000 0.000000 0.000000 0.000000 10.000000 
R_Toe1_01 0.000000 0.000000 0.000000 0.000000 0.000000 0.000000 10.000000 
R_Toe2_01 0.000000 0.000000 0.000000 0.000000 0.000000 0.000000 10.000000 
R_Toe3_01 0.000000 0.000000 0.000000 0.000000 0.000000 0.000000 10.000000 
planeLockWeightRight 0.000000 0.000000 0.000000 0.000000 0.000000 0.000000 10.000000 
R_Toe1_02 0.000000 0.000000 0.000000 0.000000 0.000000 0.000000 10.000000 
R_Toe1_03 0.000000 0.000000 0.000000 0.000000 0.000000 0.000000 10.000000 
R_Toe2_02 0.000000 0.000000 0.000000 0.000000 0.000000 0.000000 10.000000 
R_Toe2_03 0.000000 0.000000 0.000000 0.000000 0.000000 0.000000 10.000000 
R_Toe3_02 0.000000 0.000000 0.000000 0.000000 0.000000 0.000000 10.000000 
R_Toe3_03 0.000000 0.000000 0.000000 0.000000 0.000000 0.000000 10.000000 
Rear_Leg02 0.000000 0.000000 0.000000 0.000000 0.000000 0.000000 10.000000 
Rear_Leg03 0.000000 0.000000 0.000000 0.000000 0.000000 0.000000 10.000000 
Rear_Leg04 0.000000 0.000000 0.000000 0.000000 0.000000 0.000000 10.000000 
Rear_Foot 0.000000 0.000000 0.000000 0.000000 0.000000 0.000000 10.000000 
planeAlignerCenter 0.000000 0.000000 0.000000 0.000000 0.000000 0.000000 10.000000 
Rear_Toe1_01 0.000000 0.000000 0.000000 0.000000 0.000000 0.000000 10.000000 
Rear_Toe2_01 0.000000 0.000000 0.000000 0.000000 0.000000 0.000000 10.000000 
Rear_Toe3_01 0.000000 0.000000 0.000000 0.000000 0.000000 0.000000 10.000000 
planeLockWeightCenter 0.000000 0.000000 0.000000 0.000000 0.000000 0.000000 10.000000 
Rear_Toe1_02 0.000000 0.000000 0.000000 0.000000 0.000000 0.000000 10.000000 
Rear_Toe1_03 0.000000 0.000000 0.000000 0.000000 0.000000 0.000000 10.000000 
Rear_Toe2_02 0.000000 0.000000 0.000000 0.000000 0.000000 0.000000 10.000000 
Rear_Toe2_03 0.000000 0.000000 0.000000 0.000000 0.000000 0.000000 10.000000 
Rear_Toe3_02 0.000000 0.000000 0.000000 0.000000 0.000000 0.000000 10.000000 
Rear_Toe3_03 0.000000 0.000000 0.000000 0.000000 0.000000 0.000000 10.000000 
Back_Bone 0.000000 0.000000 0.000000 0.000000 0.000000 0.000000 10.000000 
Head 0.000000 0.000000 0.000000 0.000000 0.000000 0.000000 10.000000 
Motor_Bone 0.000000 0.000000 0.000000 0.000000 0.000000 0.000000 10.000000 
Ping_Mechanism 0.000000 0.000000 0.000000 0.000000 0.000000 0.000000 10.000000 
BN_LookIK 0.000000 0.000000 0.000000 0.000000 0.000000 0.000000 10.000000 
bottomMouth 0.000000 0.000000 0.000000 0.000000 0.000000 0.000000 10.000000 
L_Mouth01 0.000000 0.000000 0.000000 0.000000 0.000000 0.000000 10.000000 
L_mouthFront 0.000000 0.000000 0.000000 0.000000 0.000000 0.000000 10.000000 
mouthGun 0.000000 0.000000 0.000000 0.000000 0.000000 0.000000 10.000000 
R_Mouth01 0.000000 0.000000 0.000000 0.000000 0.000000 0.000000 10.000000 
R_mouthFront 0.000000 0.000000 0.000000 0.000000 0.000000 0.000000 10.000000 
TopMouth 0.000000 0.000000 0.000000 0.000000 0.000000 0.000000 10.000000 
weapon_bone 0.000000 0.000000 0.000000 0.000000 0.000000 0.000000 10.000000 
#Beginning of Data. Separated by tabs
#Fr	Tx	Ty	Tz	Rx	Ry	Rz	SF
[Pinger_Root]
56 -2499.999756 -0.000690 0.000000 -0.000075 -0.000000 -0.000020 2499.999756
57 -2499.999756 -0.000690 0.000000 -0.000075 -0.000000 -0.000020 2499.999756
58 -2499.999756 -0.000690 0.000000 -0.000075 -0.000000 -0.000020 2499.999756
[Pelvis]
56 -174.653214 935.155640 4052.702393 -74.453407 -74.914337 84.657135 4162.861328
57 -166.574921 945.014526 4052.426758 -72.579483 -74.545021 81.767578 4164.488281
58 -157.448578 953.786133 4056.556641 -72.212784 -73.785484 80.405533 4170.149902
[L_Hip]
56 5.766392 125.831482 872.656799 162.558304 -68.693604 110.049965 881.701050
57 5.766392 125.831482 872.656799 162.013840 -67.404350 111.038612 881.701050
58 5.766392 125.831482 872.656799 161.551971 -66.111160 111.946938 881.701050
[R_Hip]
56 5.765438 125.836372 -872.654907 30.125414 71.009445 117.476456 881.699829
57 5.765438 125.836372 -872.654907 31.122026 69.853363 118.425346 881.699829
58 5.765438 125.836372 -872.654907 32.014568 68.691231 119.269928 881.699829
[Rear_Leg01]
56 -192.298416 -925.602966 -0.001907 -175.199600 -4.370953 -138.938049 945.367432
57 -192.298416 -925.602966 -0.001907 -174.891907 -3.516966 -140.016388 945.367432
58 -192.298416 -925.602966 -0.001907 -175.036697 -2.138401 -143.619446 945.367432
[Spine1]
56 290.604584 5.007505 0.000477 -4.229867 -0.982698 9.496785 290.647736
57 290.604584 5.007505 0.000477 -3.713778 -1.823878 9.211167 290.647736
58 290.604584 5.007505 0.000477 -3.137883 -2.406041 8.451024 290.647736
[L_Leg01]
56 761.932007 -0.002384 -0.069261 36.357651 -54.216682 -39.993877 761.932068
57 761.932007 -0.002384 -0.069261 32.939991 -53.213539 -36.299095 761.932068
58 761.932007 -0.002384 -0.069261 29.273741 -52.313873 -31.903002 761.932068
[L_Leg02]
56 1441.140503 -0.000954 -0.000715 1.780138 -0.097304 -113.215897 1441.140503
57 1441.140503 -0.000954 -0.000715 2.003249 -0.095900 -115.509171 1441.140503
58 1441.140503 -0.000954 -0.000715 2.226125 -0.085570 -117.802460 1441.140503
[L_Leg03]
56 1686.963989 -0.000715 -0.000954 -0.036441 0.017047 120.105629 1686.963989
57 1686.963989 -0.000715 -0.000954 -0.036351 0.017238 120.704948 1686.963989
58 1686.963989 -0.000715 -0.000954 -0.038562 0.017938 120.956779 1686.963989
[L_Foot]
56 3041.570068 -30.715107 11.297464 4.741516 7.920714 37.193398 3041.746094
57 3041.570068 -30.715107 11.297464 4.710848 8.190029 38.760921 3041.746094
58 3041.570068 -30.715107 11.297464 4.687616 8.460127 40.329708 3041.746094
[L_Toe1_01]
56 -188.216690 -224.732346 -21.137953 90.875023 -4.069196 -165.773224 293.899567
57 -188.216690 -224.732346 -21.137953 91.064384 -4.342654 -166.747971 293.899567
58 -188.216690 -224.732346 -21.137953 91.258415 -4.612795 -167.723724 293.899567
[L_Toe2_01]
56 200.746536 -219.926590 148.838394 -83.990143 -18.601807 -41.769505 332.896027
57 200.746536 -219.926590 148.838394 -84.377670 -19.093740 -42.238392 332.896027
58 200.746536 -219.926590 148.838394 -84.762115 -19.588678 -42.705189 332.896027
[L_Toe3_01]
56 188.832520 -219.859131 -191.078659 -104.605949 25.139837 -50.122345 347.140900
57 188.832520 -219.859131 -191.078659 -104.254791 24.254538 -50.694019 347.140900
58 188.832520 -219.859131 -191.078659 -103.896553 23.372852 -51.267471 347.140900
[planeAlignerLeft]
56 46.587826 -526.905151 13.354560 169.683029 -84.920250 96.272827 529.129333
57 52.364574 -527.378845 20.783548 169.508560 -84.470642 96.090019 530.379517
58 58.141300 -527.852478 28.212509 169.333466 -84.021088 95.907692 531.793762
[L_Toe1_02]
56 413.761139 0.000477 0.000000 0.001385 -25.803165 0.001385 413.761139
57 413.761139 0.000477 0.000000 0.001385 -25.816704 0.001385 413.761139
58 413.761139 0.000477 0.000000 0.001385 -25.830240 0.001385 413.761139
[L_Toe1_03]
56 464.317322 0.000358 -0.000089 0.003414 49.788666 0.003414 464.317322
57 464.317322 0.000358 -0.000089 0.003586 51.781624 0.003586 464.317322
58 464.317322 0.000358 -0.000089 0.003775 53.774544 0.003775 464.317322
[L_Toe2_02]
56 342.235809 -0.000477 0.000238 0.001182 -76.644394 0.001182 342.235809
57 342.235809 -0.000477 0.000238 0.001182 -76.293594 0.001182 342.235809
58 342.235809 -0.000477 0.000238 0.001183 -75.942833 0.001183 342.235809
[L_Toe2_03]
56 420.210846 -0.000715 0.000000 -179.993744 81.770348 -179.990234 420.210846
57 420.210846 -0.000715 0.000000 -179.992004 83.237579 -179.988510 420.210846
58 420.210846 -0.000715 0.000000 -179.989304 84.704468 -179.985809 420.210846
[L_Toe3_02]
56 329.270111 0.000954 0.000000 0.003573 -83.102516 0.003573 329.270111
57 329.270111 0.000954 0.000000 0.003388 -83.004028 0.003388 329.270111
58 329.270111 0.000954 0.000000 0.003204 -82.905441 0.003204 329.270111
[L_Toe3_03]
56 439.137451 -0.001907 0.000954 179.991013 64.906273 179.998184 439.137451
57 439.137451 -0.001907 0.000954 179.990875 65.599731 179.998032 439.137451
58 439.137451 -0.001907 0.000954 179.990738 66.206917 179.997879 439.137451
[planeLockWeightLeft]
56 1000.000244 0.000000 -0.000069 -0.011826 -0.004376 0.005620 1000.000244
57 1000.000244 0.000000 -0.000081 -0.011826 -0.004376 0.005620 1000.000244
58 1000.000366 0.000000 -0.000092 -0.011826 -0.004376 0.005620 1000.000366
[R_Leg01]
56 761.455627 -0.001907 -0.000358 137.150024 -0.853333 45.682861 761.455688
57 761.455627 -0.001907 -0.000358 139.184525 -1.079270 43.417469 761.455688
58 761.455627 -0.001907 -0.000358 140.356827 -1.691178 41.203003 761.455688
[R_Leg02]
56 1441.140625 0.000000 -0.000238 -2.502920 -1.209129 -114.096901 1441.140625
57 1441.140625 0.000000 -0.000238 -2.530807 -1.264802 -115.831444 1441.140625
58 1441.140625 0.000000 -0.000238 -2.556995 -1.321294 -117.566040 1441.140625
[R_Leg03]
56 1686.963989 0.000954 0.001431 0.133594 -0.085191 146.190186 1686.963989
57 1686.963989 0.000954 0.001431 0.135486 -0.085224 146.825974 1686.963989
58 1686.963989 0.000954 0.001431 0.136060 -0.087799 146.998779 1686.963989
[R_Foot]
56 3041.560059 -30.531288 -11.204481 11.344373 -12.489071 46.237926 3041.734131
57 3041.560059 -30.531288 -11.204481 9.553427 -10.900049 47.414776 3041.734131
58 3041.560059 -30.531288 -11.204481 8.021724 -10.297289 48.477997 3041.734131
[planeAlignerRight]
56 -81.618401 -677.891296 -202.861099 -36.777313 -78.340645 -60.350937 712.285645
57 -91.293381 -659.937805 -225.414429 -36.787937 -76.969307 -61.117073 703.323608
58 -99.442039 -641.859253 -245.026245 -36.871212 -75.598625 -61.812393 694.197266
[R_Toe1_01]
56 -188.383347 -224.864899 21.052242 81.044212 -1.556959 -163.593170 294.101532
57 -188.383347 -224.864899 21.052242 79.842628 -1.366329 -165.410919 294.101532
58 -188.383347 -224.864899 21.052242 78.636116 -1.213983 -167.231430 294.101532
[R_Toe2_01]
56 200.637817 -220.002121 -148.787384 -97.719009 18.729462 -57.797047 332.857574
57 200.637817 -220.002121 -148.787384 -97.487862 21.174562 -58.144501 332.857574
58 200.637817 -220.002121 -148.787384 -97.151047 23.445457 -58.384129 332.857574
[R_Toe3_01]
56 188.606735 -220.092957 191.126343 -66.336006 -16.927881 -72.778610 347.192566
57 188.606735 -220.092957 191.126343 -67.163834 -15.137773 -72.964378 347.192566
58 188.606735 -220.092957 191.126343 -67.990601 -13.351531 -73.175087 347.192566
[planeLockWeightRight]
56 999.999634 0.000444 -0.000399 -0.011823 -0.004379 -0.000027 999.999634
57 999.999634 0.000438 -0.000408 -0.011823 -0.004379 -0.000027 999.999634
58 999.999634 0.000433 -0.000416 -0.011823 -0.004379 -0.000027 999.999634
[R_Toe1_02]
56 413.762085 0.000477 -0.000119 0.001389 -25.289391 0.001389 413.762085
57 413.762085 0.000477 -0.000119 0.001390 -25.200848 0.001390 413.762085
58 413.762085 0.000477 -0.000119 0.001391 -25.112307 0.001391 413.762085
[R_Toe1_03]
56 464.317810 0.000000 0.001088 0.005507 65.387741 0.005507 464.317810
57 464.317810 0.000000 0.001088 0.005775 66.549522 0.005775 464.317810
58 464.317810 0.000000 0.001088 0.005952 67.253838 0.005952 464.317810
[R_Toe2_02]
56 342.234741 -0.000954 0.000238 0.001201 -65.528046 0.001201 342.234741
57 342.234741 -0.000954 0.000238 0.001200 -65.936287 0.001200 342.234741
58 342.234741 -0.000954 0.000238 0.001199 -66.344513 0.001199 342.234741
[R_Toe2_03]
56 420.210846 0.000715 -0.000268 -0.005151 70.401123 -0.001603 420.210846
57 420.210846 0.000715 -0.000268 -0.005306 71.281166 -0.001762 420.210846
58 420.210846 0.000715 -0.000268 -0.005477 72.161125 -0.001937 420.210846
[R_Toe3_02]
56 329.270355 -0.000477 -0.000954 0.000600 -69.717606 0.000600 329.270355
57 329.270355 -0.000477 -0.000954 0.001190 -70.889267 0.001190 329.270355
58 329.270355 -0.000477 -0.000954 0.001189 -71.682388 0.001189 329.270355
[R_Toe3_03]
56 439.137939 0.000238 0.001431 0.007997 73.109001 0.007997 439.137939
57 439.137939 0.000238 0.001431 0.009155 75.270309 0.009155 439.137939
58 439.137939 0.000238 0.001431 0.010444 77.094788 0.010444 439.137939
[Rear_Leg02]
56 1162.777710 -0.029802 0.005960 -19.394547 20.902679 -115.580788 1162.777710
57 1162.777710 -0.029802 0.005960 -10.760183 21.944862 -101.214371 1162.777710
58 1162.777710 -0.029802 0.005960 -6.107829 19.434179 -95.534264 1162.777710
[Rear_Leg03]
56 607.192505 -0.013351 -0.073195 0.010208 -0.005652 74.299362 607.192505
57 607.192505 -0.013351 -0.073195 0.010434 -0.005223 69.539307 607.192505
58 607.192505 -0.013351 -0.073195 0.010557 -0.004970 66.774590 607.192505
[Rear_Leg04]
56 995.874512 -0.020504 -0.011921 -0.045421 -0.017472 81.336479 995.874573
57 995.874512 -0.020504 -0.011921 -0.040531 -0.018062 69.322914 995.874573
58 995.874512 -0.020504 -0.011921 -0.043740 -0.017572 63.290699 995.874573
[Rear_Foot]
56 3096.176270 -0.067472 -0.041425 71.924515 62.701778 -109.557426 3096.176270
57 3096.176270 -0.067472 -0.041425 60.619041 66.972725 -108.958694 3096.176270
58 3096.176270 -0.067472 -0.041425 61.257523 70.855644 -107.669624 3096.176270
[planeAlignerCenter]
56 7.116699 176.297165 -1022.495056 5.119322 -0.001585 179.998276 1037.606567
57 6.245312 152.230255 -854.244019 5.504368 -0.001579 179.998260 867.724487
58 2.440778 85.223907 -705.922119 5.889431 -0.001573 179.998260 711.052124
[Rear_Toe1_01]
56 0.653352 83.966492 -371.173737 0.047370 45.149483 89.989388 380.553192
57 0.653352 83.966492 -371.173737 0.087459 37.080482 90.066429 380.553192
58 0.653352 83.966492 -371.173737 0.166234 31.727486 90.282135 380.553192
[Rear_Toe2_01]
56 178.200760 -294.826019 -362.060547 22.347473 67.149811 -41.581196 499.765686
57 178.200760 -294.826019 -362.060547 7.453424 50.135529 -53.303223 499.765686
58 178.200760 -294.826019 -362.060547 -0.573430 38.717621 -61.353416 499.765686
[Rear_Toe3_01]
56 -153.359680 -308.780914 -362.060852 -13.387818 67.220360 -127.725945 499.952881
57 -153.359680 -308.780914 -362.060852 -4.442057 49.791214 -120.624855 499.952881
58 -153.359680 -308.780914 -362.060852 0.188406 38.278042 -115.668411 499.952881
[planeLockWeightCenter]
56 740.728149 0.000610 -0.000267 -0.011814 -0.004373 -0.000015 740.728149
57 999.993347 0.000610 -0.000143 -0.011814 -0.004373 -0.000015 999.993286
58 1000.000244 0.000610 -0.000140 -0.011814 -0.004373 -0.000015 1000.000244
[Rear_Toe1_02]
56 379.707825 0.194073 0.000477 0.001332 -33.593773 0.001332 379.707855
57 379.707825 0.194073 0.000477 -0.000338 -32.984684 0.006988 379.707855
58 379.707825 0.194073 0.000477 -0.000189 -30.942327 0.006905 379.707855
[Rear_Toe1_03]
56 500.129700 0.165701 0.000119 0.007403 71.757835 0.007403 500.129761
57 500.129700 0.165701 0.000119 -0.004085 60.786129 -0.000472 500.129761
58 500.129700 0.165701 0.000119 -0.000436 48.391804 0.007045 500.129761
[Rear_Toe2_02]
56 340.494507 0.000238 -0.000954 0.000000 -89.489861 0.002347 340.494507
57 340.494507 0.000238 -0.000954 -0.002323 -88.333405 -0.002323 340.494507
58 340.494507 0.000238 -0.000954 0.001181 -76.823509 0.001181 340.494507
[Rear_Toe2_03]
56 433.103577 0.000000 0.000238 -179.995178 68.207863 -179.998734 433.103546
57 433.103577 0.000000 0.000238 -179.994568 71.916473 -179.998123 433.103546
58 433.103577 0.000000 0.000238 0.015751 81.454430 0.015751 433.103546
[Rear_Toe3_02]
56 340.494141 -0.000358 -0.000477 0.000000 -89.608833 0.005856 340.494171
57 340.494141 -0.000358 -0.000477 0.001171 -88.057808 0.001177 340.494171
58 340.494141 -0.000358 -0.000477 0.001184 -75.016991 0.001184 340.494171
[Rear_Toe3_03]
56 433.103577 0.001431 -0.000238 -179.998795 67.814140 -179.995239 433.103546
57 433.103577 0.001431 -0.000238 -179.997925 72.774170 -179.994400 433.103546
58 433.103577 0.001431 -0.000238 0.011464 78.249153 0.011464 433.103546
[Back_Bone]
56 1312.175781 -701.934692 0.000954 1.981571 -1.832270 -86.952049 1488.125488
57 1312.175781 -701.934692 0.000954 1.719614 -1.969825 -86.936523 1488.125488
58 1312.175781 -701.934692 0.000954 1.457599 -2.107308 -86.920364 1488.125488
[Head]
56 1406.159424 809.709290 0.001431 -6.223011 1.157106 2.747238 1622.625488
57 1406.159424 809.709290 0.001431 -6.041563 1.022823 3.009466 1622.625488
58 1406.159424 809.709290 0.001431 -5.860746 0.887718 3.271244 1622.625488
[Motor_Bone]
56 1158.364380 -417.834747 0.000477 2.270533 -1.149501 -107.133369 1231.419434
57 1158.364380 -417.834747 0.000477 1.114836 -1.132542 -107.122055 1231.419434
58 1158.364380 -417.834747 0.000477 -1.034432 -1.094877 -107.077393 1231.419434
[Ping_Mechanism]
56 1287.912109 -457.261353 13.089350 0.000103 -0.000053 82.120995 1366.739502
57 1287.751099 -456.818848 17.322268 0.000103 -0.000053 82.120995 1366.486816
58 1291.723145 -457.351776 18.716587 0.000103 -0.000053 82.120995 1370.426880
[BN_LookIK]
56 193.241119 1380.371704 -0.002861 0.000000 89.965736 -31.038179 1393.832153
57 193.241119 1380.371704 -0.002861 0.000000 89.965736 -31.038179 1393.832153
58 193.241119 1380.371704 -0.002861 0.000000 89.965736 -31.038179 1393.832153
[bottomMouth]
56 -435.092926 615.759399 -0.000954 -0.000022 0.000016 73.527184 753.966492
57 -435.092926 615.759399 -0.000954 -0.000022 0.000016 73.527184 753.966492
58 -435.092926 615.759399 -0.000954 -0.000022 0.000016 73.527184 753.966492
[L_Mouth01]
56 554.440979 7.658243 838.222046 150.204178 23.759130 109.605339 1005.027161
57 554.440979 7.658243 838.222046 150.204178 23.759130 109.605339 1005.027161
58 554.440979 7.658243 838.222046 150.204178 23.759130 109.605339 1005.027161
[L_mouthFront]
56 551.629089 934.514771 339.150421 0.000081 2.804060 79.119301 1136.941284
57 551.629089 934.514771 339.150421 0.000081 2.804060 79.119301 1136.941284
58 551.629089 934.514771 339.150421 0.000081 2.804060 79.119301 1136.941284
[mouthGun]
56 55.332661 1627.420898 0.000000 0.000023 0.000009 -11.038128 1628.361328
57 55.332661 1627.420898 0.000000 0.000023 0.000009 -11.038128 1628.361328
58 55.332661 1627.420898 0.000000 0.000023 0.000009 -11.038128 1628.361328
[R_Mouth01]
56 554.442383 7.659197 -838.223938 29.795891 -23.759109 109.605331 1005.029541
57 554.442383 7.659197 -838.223938 29.795891 -23.759109 109.605331 1005.029541
58 554.442383 7.659197 -838.223938 29.795891 -23.759109 109.605331 1005.029541
[R_mouthFront]
56 551.629089 934.514282 -339.151367 0.000029 -2.803930 79.119133 1136.941162
57 551.629089 934.514282 -339.151367 0.000029 -2.803930 79.119133 1136.941162
58 551.629089 934.514282 -339.151367 0.000029 -2.803930 79.119133 1136.941162
[TopMouth]
56 461.269867 -56.106091 -0.008583 -0.000059 -0.000268 92.025169 464.669525
57 461.269867 -56.106091 -0.008583 -0.000059 -0.000268 92.025169 464.669525
58 461.269867 -56.106091 -0.008583 -0.000059 -0.000268 92.025169 464.669525
[weapon_bone]
56 -987.239868 1448.372803 0.001431 0.000000 89.965736 -31.038221 1752.833740
57 -987.239868 1448.372803 0.001431 0.000000 89.965736 -31.038221 1752.833740
58 -987.239868 1448.372803 0.001431 0.000000 89.965736 -31.038221 1752.833740
